<svg width="168" height="293" viewBox="0 0 168 293" fill="none" xmlns="http://www.w3.org/2000/svg">
<path fill-rule="evenodd" clip-rule="evenodd" d="M0 0H168V192.78H0V0Z" fill="#4AF6CD"/>
<path d="M60.22 156.972C60.22 153.812 60.68 151.032 61.6 148.632C62.52 146.192 63.9 144.012 65.74 142.092L71.62 147.072C69.34 149.952 68.2 152.972 68.2 156.132C68.2 157.772 68.52 159.032 69.16 159.912C69.76 160.752 70.62 161.172 71.74 161.172C72.54 161.172 73.2 160.952 73.72 160.512C74.24 160.072 74.74 159.332 75.22 158.292C75.7 157.252 76.3 155.612 77.02 153.372C78.38 149.092 80.1 145.972 82.18 144.012C84.22 142.012 87.06 141.012 90.7 141.012C93.34 141.012 95.68 141.692 97.72 143.052C99.72 144.412 101.28 146.392 102.4 148.992C103.52 151.552 104.08 154.572 104.08 158.052C104.08 164.692 102.06 170.112 98.02 174.312L91.96 168.852C94.68 165.532 96.04 162.072 96.04 158.472C96.04 156.592 95.64 155.132 94.84 154.092C94 153.052 92.9 152.532 91.54 152.532C90.58 152.532 89.8 152.732 89.2 153.132C88.56 153.532 88 154.252 87.52 155.292C87 156.292 86.44 157.772 85.84 159.732C84.36 164.452 82.58 167.772 80.5 169.692C78.42 171.612 75.8 172.572 72.64 172.572C70.16 172.572 67.98 171.912 66.1 170.592C64.22 169.232 62.78 167.372 61.78 165.012C60.74 162.612 60.22 159.932 60.22 156.972ZM89.02 103.567C91.9 103.567 94.48 104.207 96.76 105.487C99.04 106.727 100.84 108.607 102.16 111.127C103.44 113.647 104.08 116.727 104.08 120.367C104.08 125.887 102.74 130.067 100.06 132.907C97.34 135.747 93.66 137.167 89.02 137.167H61.3V126.067H88.66C91.18 126.067 93.04 125.627 94.24 124.747C95.4 123.827 95.98 122.367 95.98 120.367C95.98 118.367 95.38 116.927 94.18 116.047C92.98 115.167 91.14 114.727 88.66 114.727H61.3V103.567H89.02ZM87.64 83.5595V86.6195H103V97.7195H61.3V83.2595C61.3 77.3795 62.36 72.9995 64.48 70.1195C66.6 67.1995 69.86 65.7395 74.26 65.7395C76.9 65.7395 79.1 66.3595 80.86 67.5995C82.62 68.7995 84.2 70.7395 85.6 73.4195L103 63.0395V75.3995L87.64 83.5595ZM80.08 86.6195V82.8995C80.08 79.0595 78.14 77.1395 74.26 77.1395C72.46 77.1395 71.14 77.6795 70.3 78.7595C69.46 79.7995 69.04 81.3795 69.04 83.4995V86.6195H80.08ZM103 60.5124H61.3V34.8924L69.16 36.0324V49.4124H79.18V37.6524H87.04V49.4124H103V60.5124Z" fill="white"/>
<path d="M60.22 270.622C60.22 265.062 61.98 260.282 65.5 256.282L71.2 261.742C70.12 263.262 69.34 264.642 68.86 265.882C68.34 267.082 68.08 268.462 68.08 270.022C68.08 273.022 69.24 275.382 71.56 277.102C73.88 278.782 77.42 279.622 82.18 279.622C85.66 279.622 88.42 279.342 90.46 278.782C92.46 278.222 93.9 277.382 94.78 276.262C95.66 275.102 96.1 273.622 96.1 271.822C96.1 270.022 95.72 268.382 94.96 266.902H86.38V271.642L78.76 272.722V256.162H99.52C100.96 258.322 102.08 260.762 102.88 263.482C103.68 266.202 104.08 268.882 104.08 271.522C104.08 284.562 96.76 291.082 82.12 291.082C77.56 291.082 73.64 290.202 70.36 288.442C67.04 286.642 64.52 284.202 62.8 281.122C61.08 278.042 60.22 274.542 60.22 270.622ZM60.22 233.037C60.22 226.997 62.14 222.297 65.98 218.937C69.82 215.577 75.2 213.897 82.12 213.897C86.64 213.897 90.56 214.657 93.88 216.177C97.16 217.657 99.68 219.837 101.44 222.717C103.2 225.597 104.08 229.037 104.08 233.037C104.08 239.077 102.16 243.777 98.32 247.137C94.48 250.457 89.08 252.117 82.12 252.117C77.6 252.117 73.7 251.377 70.42 249.897C67.14 248.377 64.62 246.197 62.86 243.357C61.1 240.477 60.22 237.037 60.22 233.037ZM68.2 233.037C68.2 235.637 69.28 237.557 71.44 238.797C73.6 239.997 77.16 240.597 82.12 240.597C87.08 240.597 90.66 239.977 92.86 238.737C95.02 237.497 96.1 235.597 96.1 233.037C96.1 230.397 95.02 228.477 92.86 227.277C90.7 226.077 87.12 225.477 82.12 225.477C77.16 225.477 73.6 226.077 71.44 227.277C69.28 228.477 68.2 230.397 68.2 233.037Z" fill="white"/>
<rect x="83" y="202.873" width="20.1863" height="1" transform="rotate(-90 83 202.873)" fill="white"/>
</svg>
