<svg width="14" height="17" viewBox="0 0 14 17" fill="none" xmlns="http://www.w3.org/2000/svg">
<g opacity="0.299219">
<path fill-rule="evenodd" clip-rule="evenodd" d="M6.91558 0.375244C8.47498 0.375244 9.98902 0.901804 11.1828 1.85804V1.85801C12.7422 3.10637 13.6594 4.88137 13.7703 6.85481C13.8765 8.80317 13.1484 10.7094 11.7734 12.0844L7.21542 16.5828C7.03886 16.7578 6.73263 16.7562 6.55606 16.5812L2.06246 12.0876C0.684342 10.7095 -0.0453501 8.80172 0.0624619 6.85484C0.171822 4.88148 1.09058 3.10648 2.64838 1.85804C3.84058 0.901804 5.35622 0.375244 6.91558 0.375244ZM3.8531 7.23476C3.8531 8.9238 5.2265 10.2972 6.91558 10.2972C8.60462 10.2972 9.97962 8.92384 9.97806 7.23476C9.97806 5.54572 8.60466 4.17228 6.91558 4.17228C5.22654 4.17228 3.8531 5.54568 3.8531 7.23476Z" fill="white"/>
<path d="M6.91557 5.74194C6.09213 5.74194 5.42337 6.4107 5.42337 7.23414C5.42337 8.05758 6.09213 8.72634 6.91557 8.72634C7.73901 8.72634 8.40777 8.05758 8.40777 7.23414C8.40777 6.4107 7.73901 5.74194 6.91557 5.74194Z" fill="white"/>
</g>
</svg>
